<?xml version="1.0" standalone="no"?>
<!DOCTYPE svg PUBLIC "-//W3C//DTD SVG 20010904//EN"
 "http://www.w3.org/TR/2001/REC-SVG-20010904/DTD/svg10.dtd">
<svg version="1.0" xmlns="http://www.w3.org/2000/svg"
 width="1234.000000pt" height="574.000000pt" viewBox="0 0 1234.000000 574.000000"
 preserveAspectRatio="xMidYMid meet">
<metadata>
Created by potrace 1.16, written by Peter Selinger 2001-2019
</metadata>
<g transform="translate(0.000000,574.000000) scale(0.100000,-0.100000)"
fill="#000000" stroke="none">
<path d="M1780 5687 c-124 -35 -205 -130 -231 -271 -30 -164 48 -325 190 -389
63 -29 178 -29 242 0 92 41 158 120 184 220 46 178 -28 357 -177 423 -59 26
-150 33 -208 17z m168 -54 c38 -18 73 -66 98 -133 26 -70 23 -238 -6 -313 -51
-135 -175 -180 -286 -105 -99 66 -131 317 -59 463 50 103 149 137 253 88z"/>
<path d="M387 5683 c-3 -5 -41 -102 -85 -218 -148 -384 -149 -386 -209 -406
-65 -21 -32 -34 95 -37 103 -2 122 0 122 13 0 8 -12 17 -27 20 -68 15 -74 36
-43 131 l22 65 116 -3 116 -3 27 -70 c15 -38 28 -78 28 -88 1 -18 -4 -21 -51
-31 -16 -4 -28 -13 -28 -21 0 -13 23 -15 136 -15 124 0 135 2 132 18 -2 9 -13
18 -24 20 -12 2 -31 13 -42 25 -11 12 -71 154 -133 315 -89 232 -116 292 -130
292 -10 0 -20 -3 -22 -7z m42 -266 c22 -60 41 -113 41 -118 0 -5 -43 -9 -96
-9 -53 0 -94 4 -92 8 2 5 23 61 48 125 25 64 48 113 51 109 3 -4 25 -56 48
-115z"/>
<path d="M770 5666 c0 -8 16 -20 35 -26 19 -6 40 -20 45 -30 16 -29 13 -525
-2 -538 -7 -5 -28 -13 -45 -17 -19 -4 -33 -13 -33 -21 0 -11 25 -14 135 -14
113 0 135 2 135 15 0 8 -12 18 -27 21 -51 12 -53 18 -53 155 l0 129 155 0 156
0 -3 -131 c-3 -142 -3 -142 -60 -154 -16 -3 -28 -12 -28 -20 0 -13 22 -15 135
-15 113 0 135 2 135 15 0 8 -12 18 -27 21 -54 13 -53 7 -53 294 0 287 -1 281
53 294 15 3 27 13 27 21 0 13 -22 15 -135 15 -110 0 -135 -3 -135 -14 0 -8 16
-20 35 -26 19 -6 40 -20 45 -31 6 -10 9 -64 8 -121 l-3 -103 -152 -3 -153 -3
0 120 c0 127 2 133 53 145 15 3 27 13 27 21 0 13 -22 15 -135 15 -110 0 -135
-3 -135 -14z"/>
<path d="M8858 5115 c-3 -3 -27 -11 -54 -18 -75 -20 -390 -235 -514 -353 -30
-28 -75 -69 -100 -90 -46 -40 -176 -179 -191 -205 -4 -8 -4 -21 1 -29 10 -16
10 -16 290 179 209 147 431 298 506 345 l47 29 31 -34 c17 -20 78 -94 136
-165 273 -336 595 -689 1045 -1144 481 -486 594 -604 945 -995 228 -254 419
-453 832 -870 218 -220 411 -417 428 -437 18 -21 36 -36 40 -33 4 2 8 42 9 89
l2 84 -42 48 c-22 27 -228 238 -458 469 -439 443 -599 607 -671 691 -42 48
-87 98 -324 359 -152 167 -264 284 -657 685 -478 489 -770 809 -1074 1180 -60
74 -127 154 -149 177 -35 39 -63 52 -78 38z"/>
<path d="M2708 4624 c-11 -11 -46 -18 -117 -24 -171 -13 -222 -63 -257 -250
-37 -196 9 -359 118 -416 40 -21 141 -18 187 6 81 41 124 119 124 226 1 146
-81 234 -216 234 -53 0 -101 -25 -143 -74 l-36 -41 7 40 c12 67 51 143 85 163
20 13 59 21 118 25 l87 7 48 51 c44 48 52 69 24 69 -7 0 -20 -7 -29 -16z m-86
-295 c36 -38 51 -99 46 -189 -6 -94 -34 -154 -84 -177 -31 -15 -39 -16 -77 -3
-63 22 -87 76 -87 195 1 126 28 185 97 205 41 12 74 2 105 -31z"/>
<path d="M910 4597 c-66 -19 -116 -53 -161 -109 -54 -69 -72 -137 -67 -257 5
-114 30 -172 101 -238 62 -57 107 -75 193 -75 111 0 190 45 240 137 15 29 16
37 5 47 -11 11 -15 9 -25 -6 -41 -67 -56 -83 -96 -103 -83 -42 -191 -21 -242
48 -49 65 -61 101 -66 194 -8 154 25 246 109 306 47 33 131 33 177 0 34 -24
75 -94 87 -148 5 -23 12 -33 26 -33 18 0 19 8 19 115 0 104 -2 115 -18 115
-10 0 -23 -5 -29 -11 -9 -9 -22 -7 -53 5 -57 23 -146 28 -200 13z"/>
<path d="M1415 4383 c-86 -45 -124 -113 -125 -221 0 -80 13 -120 55 -170 41
-49 94 -72 165 -72 100 0 171 51 206 147 18 52 17 156 -2 201 -19 47 -69 100
-113 118 -45 19 -148 17 -186 -3z m146 -29 c48 -25 73 -91 73 -194 0 -67 -5
-95 -22 -130 -50 -104 -153 -106 -203 -3 -20 39 -24 64 -24 138 0 104 19 156
69 186 38 23 67 24 107 3z"/>
<path d="M1934 4386 c-50 -22 -100 -81 -119 -142 -31 -100 -6 -201 67 -271 42
-41 76 -53 144 -53 90 0 154 39 195 120 19 36 24 60 23 125 0 115 -39 183
-126 220 -45 18 -142 19 -184 1z m147 -33 c86 -51 95 -297 13 -374 -36 -34
-103 -33 -138 0 -69 65 -75 280 -9 353 36 40 88 48 134 21z"/>
<path d="M3768 4371 c-98 -62 -132 -216 -74 -335 29 -58 58 -85 115 -104 84
-29 170 -5 230 63 26 30 30 40 20 51 -10 12 -18 8 -48 -25 -42 -46 -87 -58
-150 -41 -55 15 -93 70 -99 146 l-4 54 152 0 153 0 -6 55 c-11 109 -73 165
-183 165 -49 0 -68 -5 -106 -29z m161 -29 c26 -25 50 -106 37 -120 -3 -3 -49
-5 -103 -4 l-98 1 -3 28 c-4 34 32 92 68 110 39 20 69 15 99 -15z"/>
<path d="M4255 4383 c-48 -25 -76 -55 -101 -108 -52 -109 -20 -264 66 -321 46
-30 124 -41 175 -24 37 12 125 84 125 102 0 23 -30 16 -62 -16 -62 -62 -148
-56 -200 15 -49 66 -44 236 8 299 29 33 81 48 113 30 18 -9 21 -19 19 -63 -3
-47 -1 -52 24 -65 86 -41 100 96 16 148 -41 25 -139 27 -183 3z"/>
<path d="M5634 4381 c-80 -36 -124 -117 -124 -227 1 -140 89 -234 220 -234 73
0 125 23 168 75 37 46 52 96 52 176 -1 101 -47 180 -127 215 -46 20 -140 17
-189 -5z m178 -52 c74 -87 54 -319 -31 -363 -61 -32 -118 -9 -154 64 -31 64
-31 195 0 263 38 83 130 101 185 36z"/>
<path d="M2840 4376 c0 -8 11 -17 25 -20 38 -10 45 -42 45 -207 0 -136 -2
-151 -20 -169 -11 -11 -27 -20 -35 -20 -8 0 -15 -7 -15 -15 0 -13 43 -15 329
-15 374 0 346 6 387 -87 13 -29 28 -53 34 -53 6 0 10 36 10 90 l0 90 -30 0
c-19 0 -33 7 -40 19 -13 25 -13 301 0 335 5 14 20 28 35 32 14 3 25 13 25 20
0 12 -20 14 -107 12 -60 -2 -108 -7 -109 -13 -2 -5 11 -17 29 -25 l32 -15 0
-180 0 -180 -85 0 -85 0 -3 183 -2 184 30 11 c16 6 30 17 30 24 0 10 -26 13
-105 13 -83 0 -105 -3 -105 -14 0 -8 14 -19 30 -25 l30 -10 -2 -183 -3 -183
-75 -3 c-62 -2 -77 0 -87 14 -14 20 -19 330 -5 351 4 6 20 17 35 22 51 20 18
31 -89 31 -82 0 -104 -3 -104 -14z"/>
<path d="M4540 4314 c0 -42 4 -74 9 -72 5 2 24 25 43 53 26 38 41 51 68 56 19
4 38 5 42 3 5 -3 8 -85 8 -183 0 -186 -2 -195 -45 -203 -11 -2 -21 -11 -23
-21 -3 -15 8 -17 113 -17 105 0 116 2 113 17 -2 10 -12 19 -23 21 -43 8 -45
16 -45 209 l0 185 38 -7 c47 -9 56 -16 83 -71 30 -62 44 -52 44 32 l0 69 -212
3 -213 2 0 -76z"/>
<path d="M5010 4378 c0 -7 15 -20 33 -28 l32 -15 3 -177 2 -177 -35 -12 c-61
-22 -35 -34 86 -37 206 -6 270 15 298 94 20 58 -3 105 -67 132 -47 20 -47 21
-21 31 66 25 92 116 46 159 -36 34 -80 42 -234 42 -108 0 -143 -3 -143 -12z
m269 -33 c51 -26 56 -82 12 -126 -24 -24 -38 -29 -75 -29 l-46 0 0 85 0 85 40
0 c23 0 54 -7 69 -15z m-11 -195 c65 0 97 -105 48 -155 -29 -29 -88 -42 -122
-26 -23 10 -24 15 -24 95 0 90 6 100 55 90 11 -2 30 -4 43 -4z"/>
<path d="M248 4275 c-49 -47 -88 -91 -88 -99 0 -14 178 -186 192 -186 20 0 4
38 -40 99 -27 36 -51 71 -55 78 -5 7 17 46 52 95 32 46 57 86 54 91 -10 17
-33 2 -115 -78z"/>
<path d="M428 4277 c-49 -45 -88 -90 -88 -99 0 -24 180 -192 193 -179 7 7 -7
36 -48 95 l-58 84 57 80 c31 44 56 85 56 91 0 25 -30 6 -112 -72z"/>
<path d="M9826 3372 c-9 -10 -36 -60 -61 -111 -25 -51 -59 -113 -77 -138 -49
-72 -164 -189 -250 -253 -126 -95 -189 -125 -313 -150 -142 -28 -257 -65 -321
-101 -48 -27 -113 -89 -141 -135 -23 -38 -15 89 12 173 43 134 149 249 290
313 33 16 141 53 240 84 287 90 402 139 472 202 l38 33 -90 -38 c-49 -21 -132
-57 -183 -80 -51 -23 -175 -71 -275 -107 -195 -71 -253 -96 -321 -144 -127
-86 -206 -245 -206 -410 0 -32 -4 -61 -9 -64 -5 -4 -47 12 -93 35 -76 37 -88
40 -145 36 -111 -8 -186 -77 -190 -175 -1 -30 -11 -77 -23 -104 -12 -28 -19
-52 -16 -55 3 -3 17 4 32 16 33 26 83 27 132 2 52 -26 128 -111 157 -174 l25
-52 0 68 c0 37 6 83 14 102 21 49 70 77 122 71 90 -11 152 -74 286 -288 132
-212 239 -321 401 -410 43 -24 85 -49 95 -56 15 -11 12 -12 -18 -7 -78 13
-459 108 -508 127 -50 19 -55 20 -70 4 -15 -15 -13 -16 30 -16 26 0 57 -4 70
-9 13 -5 75 -26 138 -46 176 -56 240 -90 445 -239 44 -32 114 -75 156 -96 160
-81 404 -145 600 -157 84 -5 159 1 148 12 -2 2 -58 8 -124 15 -309 30 -569
120 -670 233 -76 83 -63 94 121 107 259 19 434 51 578 105 149 56 167 80 30
40 -169 -49 -320 -69 -534 -69 -223 -1 -309 13 -421 69 -126 64 -236 177 -290
300 -22 50 -20 75 8 75 33 0 118 47 145 79 17 19 41 76 63 146 44 140 85 212
162 287 83 79 172 134 416 257 117 58 244 128 284 154 90 61 182 157 218 226
32 64 25 63 -74 -9 -183 -133 -424 -211 -835 -270 -180 -26 -197 -24 -131 14
132 77 264 196 360 326 47 64 135 231 135 257 0 18 -14 16 -34 -5z"/>
<path d="M240 3304 c-36 -10 -56 -11 -58 -4 -2 5 -12 10 -23 10 -17 0 -19 -8
-19 -80 0 -93 16 -106 49 -41 45 86 126 117 176 66 28 -27 32 -63 10 -104 -17
-33 -33 -41 -86 -41 -31 0 -39 -4 -39 -19 0 -15 10 -19 53 -24 85 -10 120 -73
82 -147 -20 -38 -43 -50 -100 -50 -70 0 -88 13 -80 60 6 34 3 41 -19 55 -51
34 -96 -18 -65 -74 35 -63 127 -92 227 -72 71 14 118 46 137 93 27 69 -2 127
-75 149 l-40 12 39 18 c46 20 71 53 71 94 0 86 -115 134 -240 99z"/>
<path d="M700 3305 c-67 -21 -102 -58 -98 -103 3 -33 6 -37 34 -40 43 -4 67
21 59 60 -9 39 9 58 56 58 61 0 95 -46 87 -116 -3 -26 -11 -31 -90 -60 -129
-46 -161 -71 -173 -131 -8 -42 16 -96 51 -120 50 -32 137 -19 190 28 20 19 21
19 42 -11 19 -25 29 -30 66 -30 79 0 105 27 44 45 l-33 10 -5 172 -5 172 -29
30 c-19 20 -45 34 -78 40 -59 13 -62 13 -118 -4z m140 -290 l0 -85 -32 -20
c-40 -24 -101 -26 -122 -4 -24 23 -20 88 7 119 16 19 120 72 145 75 1 0 2 -38
2 -85z"/>
<path d="M1891 3309 c-91 -27 -151 -118 -151 -227 0 -89 17 -139 65 -188 85
-89 220 -84 303 10 36 41 39 51 18 59 -9 4 -25 -8 -41 -28 -49 -65 -156 -68
-209 -5 -27 32 -46 87 -46 133 l0 27 150 0 150 0 0 40 c0 70 -37 138 -90 165
-36 19 -110 26 -149 14z m113 -54 c22 -24 36 -65 36 -106 0 -17 -9 -19 -105
-19 -117 0 -121 3 -91 74 31 73 115 100 160 51z"/>
<path d="M3166 3309 c-50 -12 -104 -52 -112 -84 -9 -35 12 -65 44 -65 39 0 52
17 52 66 0 29 5 44 16 48 32 12 74 5 100 -18 23 -19 28 -32 28 -72 l1 -48 -86
-31 c-145 -53 -179 -81 -179 -153 0 -112 135 -157 235 -78 l29 23 24 -28 c19
-24 32 -29 67 -29 24 0 50 3 59 6 23 9 20 34 -4 34 -11 0 -30 10 -41 21 -21
21 -21 29 -16 143 9 198 -11 247 -112 266 -30 5 -56 10 -60 9 -3 -1 -24 -5
-45 -10z m134 -294 c0 -70 -2 -75 -31 -99 -37 -31 -108 -36 -130 -10 -20 25
-17 89 6 115 22 24 135 80 148 72 4 -2 7 -37 7 -78z"/>
<path d="M3909 3305 c-63 -20 -113 -71 -136 -142 -18 -52 -22 -58 -46 -57 -71
3 -67 -1 -67 68 0 69 14 96 51 96 10 0 19 7 19 15 0 12 -19 15 -110 15 -87 0
-110 -3 -110 -14 0 -8 11 -17 25 -20 41 -10 46 -34 43 -208 l-3 -163 -33 -14
c-55 -25 -32 -36 81 -39 91 -2 107 0 107 13 0 8 -10 19 -23 24 -41 16 -48 34
-45 113 l3 73 44 0 44 0 12 -50 c28 -122 100 -185 212 -185 88 1 165 54 201
140 20 49 19 165 -3 218 -23 57 -85 108 -147 121 -59 13 -61 13 -119 -4z m122
-42 c43 -26 64 -90 63 -193 0 -64 -5 -96 -21 -132 -21 -46 -61 -78 -98 -78
-62 0 -110 71 -121 177 -18 172 73 287 177 226z"/>
<path d="M1050 3288 c0 -7 15 -20 33 -28 l32 -15 3 -169 c3 -176 -1 -192 -41
-198 -12 -2 -22 -10 -22 -18 0 -12 16 -15 85 -15 73 0 85 2 88 18 2 11 -3 17
-17 17 -46 0 -51 20 -51 208 0 97 4 172 8 167 10 -11 11 -15 88 -230 31 -88
61 -164 66 -170 15 -16 30 13 102 202 38 98 72 182 77 188 5 5 9 -65 9 -167 0
-183 -2 -192 -45 -200 -11 -2 -20 -10 -20 -18 0 -12 19 -15 109 -15 119 0 145
12 82 39 l-36 15 0 174 c0 181 2 190 43 198 10 2 19 9 20 14 1 6 -36 11 -93
13 l-95 3 -55 -152 c-30 -83 -58 -153 -61 -155 -8 -4 -17 19 -78 191 l-38 110
-97 3 c-73 2 -96 0 -96 -10z"/>
<path d="M2200 3285 c0 -8 7 -15 15 -15 8 0 24 -9 35 -20 18 -18 20 -33 20
-176 0 -85 -4 -164 -10 -174 -5 -10 -21 -21 -35 -24 -14 -4 -25 -13 -25 -21 0
-13 46 -15 334 -15 l335 0 20 -26 c12 -15 26 -44 33 -65 8 -27 17 -39 30 -39
16 0 18 9 18 80 0 56 -4 82 -12 84 -7 3 -25 7 -40 10 l-28 6 0 179 c0 185 2
194 43 202 10 2 19 9 20 14 1 6 -41 11 -105 13 -84 2 -108 0 -108 -10 0 -8 14
-19 30 -25 l30 -11 -2 -184 -3 -183 -73 -3 c-46 -2 -79 2 -88 9 -11 9 -14 48
-14 183 0 178 4 196 42 196 10 0 18 7 18 15 0 12 -18 15 -105 15 -79 0 -105
-3 -105 -13 0 -7 14 -18 30 -24 l30 -11 0 -187 0 -186 -82 3 -83 3 -3 188 -2
187 30 6 c16 4 30 13 30 20 0 11 -23 14 -110 14 -91 0 -110 -3 -110 -15z"/>
<path d="M4260 3290 c0 -5 16 -16 35 -24 l35 -15 -2 -182 -3 -183 -33 -8 c-19
-5 -32 -14 -29 -21 3 -9 90 -13 338 -17 184 -3 339 -8 346 -12 6 -5 21 -33 34
-63 34 -82 49 -73 49 30 l0 85 -30 0 c-19 0 -33 7 -40 19 -6 11 -10 88 -10
180 0 170 6 191 51 191 10 0 19 7 19 15 0 12 -19 15 -110 15 -118 0 -140 -11
-77 -40 l32 -15 3 -160 c4 -219 10 -206 -91 -203 l-82 3 -3 188 -2 187 30 6
c16 4 30 13 30 20 0 11 -23 14 -110 14 -116 0 -136 -9 -75 -34 l35 -15 -2
-183 -3 -183 -73 -3 c-46 -2 -79 2 -88 9 -11 9 -14 48 -14 183 0 178 4 196 42
196 10 0 18 7 18 15 0 12 -19 15 -110 15 -66 0 -110 -4 -110 -10z"/>
<path d="M5090 3285 c0 -8 8 -15 18 -15 11 0 26 -8 35 -18 14 -16 17 -44 17
-184 0 -173 -2 -182 -45 -190 -11 -2 -20 -10 -20 -18 0 -12 19 -15 110 -15 91
0 110 3 110 15 0 8 -10 16 -23 18 -12 2 -30 14 -38 28 -16 24 -15 26 87 136
l104 111 3 -123 c3 -128 -3 -150 -40 -150 -13 0 -18 -6 -16 -17 3 -16 16 -18
107 -18 114 0 139 13 77 39 l-36 15 0 174 c0 182 2 191 44 198 11 2 21 10 24
17 3 9 -24 12 -112 12 -122 0 -142 -9 -81 -34 24 -10 35 -22 35 -35 0 -20
-185 -231 -202 -231 -9 0 -11 204 -2 238 4 15 17 25 35 29 16 3 29 12 29 19 0
11 -23 14 -110 14 -91 0 -110 -3 -110 -15z"/>
<path d="M5660 3287 c0 -7 12 -17 28 -23 18 -7 49 -43 91 -103 l63 -92 -29
-41 c-33 -48 -119 -138 -148 -154 -37 -22 -4 -35 75 -32 78 3 103 20 56 38
-14 5 -26 16 -26 24 0 12 86 136 94 136 4 0 70 -99 85 -128 11 -20 9 -23 -14
-32 -15 -6 -25 -16 -22 -23 2 -8 32 -12 102 -12 70 0 100 4 102 12 3 7 -6 17
-20 22 -13 5 -37 27 -54 48 -48 61 -113 161 -113 173 0 23 104 142 141 161 22
11 39 24 39 29 0 6 -36 10 -85 10 -69 0 -85 -3 -85 -15 0 -8 7 -15 15 -15 31
0 27 -31 -10 -86 -21 -29 -40 -54 -44 -54 -7 1 -27 27 -65 88 l-26 42 25 10
c51 20 25 30 -75 30 -75 0 -100 -3 -100 -13z"/>
<path d="M6715 3221 c-91 -23 -180 -97 -225 -187 -21 -43 -25 -67 -30 -189 -5
-152 -4 -148 -75 -241 -50 -65 -72 -136 -121 -383 -78 -393 -118 -513 -220
-657 -72 -102 -206 -205 -352 -270 -272 -122 -603 -211 -922 -249 -74 -8 -152
-18 -172 -20 -35 -5 -39 -3 -55 32 -25 50 -62 75 -122 81 -98 9 -191 -39 -204
-105 -7 -38 16 -53 78 -51 98 4 167 -2 163 -13 -2 -6 -45 -27 -96 -45 -51 -18
-103 -41 -116 -51 -68 -50 -58 -173 16 -204 44 -18 122 -6 162 24 l35 27 31
-31 c28 -28 36 -31 76 -26 25 2 50 9 56 15 15 15 0 32 -27 32 -38 0 -46 29
-43 152 l3 113 160 7 c138 5 338 26 426 44 22 4 30 -3 62 -49 20 -29 37 -59
37 -65 0 -6 -25 -46 -55 -89 -38 -52 -52 -80 -45 -87 7 -7 22 1 47 24 113 103
143 136 143 155 0 12 -22 42 -50 70 -27 27 -47 52 -42 56 4 4 24 10 44 13 37
7 38 6 88 -61 27 -37 50 -73 50 -78 0 -6 -25 -45 -55 -87 -91 -127 -71 -133
56 -17 62 56 89 88 89 104 0 15 -23 42 -70 84 -39 35 -68 66 -65 71 3 4 29 14
57 21 29 6 98 27 152 46 143 48 168 44 142 -19 -19 -44 -263 -378 -306 -418
-3 -3 -26 -28 -51 -56 -26 -28 -72 -75 -104 -104 l-56 -54 -107 -1 c-59 0
-482 -2 -940 -3 -783 -2 -833 -3 -839 -20 -3 -9 -29 -41 -57 -70 l-51 -53 908
2 c499 1 910 -1 913 -3 5 -5 -85 -86 -186 -168 -71 -58 -84 -70 -72 -70 16 0
181 112 247 166 107 89 38 81 720 88 633 7 1694 28 2256 46 178 5 504 14 724
20 2047 51 2356 59 2805 76 223 8 487 17 588 21 206 7 197 2 190 94 l-3 44
-145 -1 c-80 -1 -341 -9 -580 -18 -398 -15 -870 -28 -2010 -56 -228 -6 -590
-15 -804 -21 -213 -5 -390 -8 -393 -5 -3 2 28 20 69 39 98 45 286 168 408 267
138 112 162 146 118 174 -14 8 -28 0 -80 -50 -112 -106 -403 -323 -416 -309
-2 2 30 45 72 95 77 92 94 133 63 158 -18 15 -27 7 -89 -83 -80 -114 -172
-216 -222 -245 -23 -14 -50 -32 -59 -41 -14 -15 -46 -17 -233 -17 -203 -1
-215 0 -193 15 27 19 115 95 203 177 49 46 68 56 105 61 158 21 546 198 791
361 106 70 105 70 92 99 -6 14 -16 25 -21 25 -4 0 -69 -40 -142 -88 -164 -107
-197 -128 -227 -137 -13 -4 -49 -21 -80 -39 -103 -58 -392 -175 -392 -159 0 4
20 33 45 64 48 61 58 106 30 129 -27 22 -31 18 -156 -165 -42 -62 -58 -72
-139 -87 -81 -14 -94 -35 -17 -30 28 2 47 0 47 -6 0 -20 -186 -164 -255 -198
l-69 -34 -159 0 -159 0 -62 51 c-79 65 -79 65 -131 128 -46 56 -56 77 -31 68
34 -13 136 -19 136 -9 0 11 -19 17 -135 43 l-59 14 -43 80 c-23 44 -43 84 -43
89 0 4 41 5 90 1 107 -8 126 9 22 19 -124 12 -123 12 -150 102 -13 43 -32 127
-41 187 -10 59 -21 110 -24 113 -3 4 -14 4 -23 0 -15 -6 -16 -17 -10 -94 10
-134 13 -154 30 -212 9 -29 14 -55 12 -57 -7 -7 -169 35 -258 67 -57 21 -89
38 -93 50 -6 18 -17 101 -34 250 -5 41 -6 78 -2 82 16 18 223 118 256 124 21
4 47 2 61 -5 27 -12 33 1 9 21 -9 7 -21 18 -28 24 -9 9 -32 0 -93 -33 -45 -24
-160 -72 -255 -107 -224 -82 -300 -113 -433 -176 -60 -28 -110 -49 -113 -47
-2 3 47 43 109 90 177 133 301 272 402 453 76 135 128 280 182 501 59 248 105
335 186 352 18 3 44 5 57 3 30 -5 101 -76 124 -124 22 -46 33 -48 40 -9 7 34
43 71 68 71 30 0 75 -47 99 -102 62 -141 19 -369 -104 -561 -49 -78 -46 -87 4
-12 86 128 133 262 146 417 11 140 -17 226 -121 371 -19 27 -39 65 -45 85 -18
61 -23 156 -11 195 14 40 68 93 107 103 53 14 16 29 -82 34 -76 4 -109 10
-140 27 -46 25 -124 36 -169 24z m-315 -1853 c0 -51 5 -110 11 -131 6 -22 8
-41 6 -43 -3 -3 -47 15 -98 40 -52 25 -103 48 -114 51 -17 5 -14 11 25 44 107
91 155 130 163 130 4 1 7 -41 7 -91z m-251 -45 c-8 -10 -40 -47 -71 -82 -57
-63 -104 -131 -90 -131 4 0 31 22 61 49 l53 49 32 -37 c18 -20 45 -54 61 -76
102 -140 267 -321 374 -408 57 -47 27 -41 -45 9 -90 62 -261 234 -353 357 -72
95 -96 113 -107 82 -21 -54 327 -387 509 -487 26 -15 47 -23 47 -18 0 5 -6 11
-12 13 -10 4 -10 6 -1 6 7 1 19 -10 28 -22 8 -13 57 -44 108 -68 l92 -44 -115
-6 c-167 -9 -1430 -23 -1430 -16 0 12 757 766 808 806 58 44 72 51 51 24z
m506 -276 c33 -9 94 -21 137 -27 l76 -12 28 -67 c15 -36 32 -72 37 -79 8 -11
5 -12 -19 -6 -16 4 -36 10 -44 14 -8 4 -44 18 -80 30 -117 41 -247 109 -254
133 -13 50 -19 50 119 14z m-215 -69 c46 -24 61 -40 97 -100 24 -40 57 -88 73
-106 17 -19 34 -40 38 -47 12 -22 174 -138 235 -170 63 -32 71 -45 28 -45 -46
0 -225 122 -336 230 -123 119 -265 281 -265 303 0 5 17 -1 38 -14 20 -13 62
-36 92 -51z m-1976 -86 c0 -12 -1 -49 -2 -81 -2 -56 -4 -61 -36 -80 -43 -27
-90 -27 -117 0 -32 32 -21 95 22 131 32 27 105 59 124 54 6 -2 10 -12 9 -24z
m2266 -35 c58 -19 137 -42 175 -51 62 -14 74 -21 105 -58 76 -92 186 -189 230
-203 45 -14 3 -25 -96 -25 -102 0 -106 1 -182 39 -90 46 -201 133 -270 211
-58 67 -102 136 -81 128 8 -2 61 -21 119 -41z"/>
<path d="M2280 2440 c-26 -26 -25 -51 1 -84 31 -39 71 -56 134 -56 91 0 155
41 155 100 0 36 -14 53 -45 53 -35 0 -47 -19 -39 -65 7 -43 -12 -58 -71 -58
-60 0 -74 13 -68 61 5 34 2 45 -12 56 -25 17 -31 17 -55 -7z"/>
<path d="M269 2216 c-99 -35 -149 -114 -149 -233 0 -148 73 -233 200 -236 47
-1 65 3 105 28 62 38 94 80 76 98 -10 10 -16 8 -29 -8 -38 -45 -74 -65 -119
-65 -92 0 -138 66 -137 200 0 123 41 190 113 190 55 0 64 -10 56 -62 -8 -50
10 -78 48 -78 37 0 50 15 50 59 0 90 -109 145 -214 107z"/>
<path d="M696 2215 c-107 -38 -169 -174 -137 -302 27 -107 101 -167 206 -167
68 1 113 20 157 67 55 61 26 87 -30 28 -36 -38 -43 -41 -91 -41 -29 0 -64 6
-79 14 -35 18 -68 78 -77 139 l-7 47 151 0 c173 0 169 -2 151 84 -24 115 -129
172 -244 131z m124 -50 c15 -16 24 -41 28 -75 l5 -50 -108 0 -107 0 7 33 c17
77 56 117 115 117 26 0 43 -7 60 -25z"/>
<path d="M1847 2220 c-49 -15 -94 -58 -122 -115 -25 -49 -27 -64 -23 -133 8
-129 60 -200 166 -222 74 -16 147 6 196 60 38 43 43 55 24 66 -7 4 -22 -5 -37
-23 -34 -40 -61 -53 -111 -53 -82 0 -133 52 -146 148 l-7 52 152 0 151 0 0 44
c0 58 -14 94 -53 134 -45 47 -119 63 -190 42z m105 -41 c24 -13 48 -67 48
-109 l0 -30 -105 0 c-117 0 -121 3 -91 74 26 63 95 93 148 65z"/>
<path d="M1495 2212 l-60 -3 -55 -150 c-30 -83 -58 -152 -61 -155 -4 -2 -31
65 -60 149 l-54 152 -98 3 c-99 3 -125 -8 -70 -29 15 -6 31 -16 35 -22 4 -7 8
-87 8 -178 0 -173 -2 -183 -44 -190 -11 -2 -21 -10 -24 -16 -3 -10 19 -13 87
-13 99 0 117 13 58 40 l-32 15 -3 178 c-1 97 1 177 5 177 5 0 39 -91 78 -201
38 -110 74 -203 78 -206 17 -10 35 25 108 217 l74 195 3 -179 c3 -186 0 -202
-40 -208 -12 -2 -23 -9 -26 -15 -3 -10 24 -13 112 -13 122 0 142 9 81 34 l-35
15 0 174 c0 182 2 191 44 198 11 2 21 9 23 15 5 14 -47 20 -132 16z"/>
<path d="M2160 2200 c0 -13 7 -20 19 -20 46 0 51 -21 51 -195 0 -174 -5 -195
-51 -195 -10 0 -19 -7 -19 -15 0 -12 19 -15 110 -15 83 0 110 3 110 13 0 7
-13 18 -30 24 -61 23 -56 34 91 192 l79 84 0 -132 0 -132 -35 -15 c-61 -25
-41 -34 80 -34 121 0 141 9 80 34 l-35 15 2 183 3 183 28 3 c19 2 27 9 27 23
0 19 -6 20 -107 17 -88 -2 -108 -6 -108 -18 0 -8 9 -16 20 -18 27 -5 45 -21
45 -39 0 -14 -183 -224 -202 -231 -4 -2 -8 50 -8 115 0 125 7 148 45 155 11 2
20 10 20 18 0 12 -20 16 -107 18 -103 3 -108 2 -108 -18z"/>
<path d="M7886 1799 c-3 -8 -11 -45 -19 -84 -15 -79 -8 -76 -114 -54 -35 7
-66 9 -70 6 -3 -4 6 -20 21 -36 l28 -29 -25 -48 c-13 -27 -32 -82 -42 -122
-10 -41 -21 -70 -25 -65 -4 4 -12 33 -19 63 -12 57 -64 160 -81 160 -15 0 -12
41 5 70 31 55 13 53 -57 -5 -30 -25 -60 -45 -65 -45 -6 0 -30 25 -53 55 -23
30 -47 55 -52 55 -6 0 -8 -17 -4 -45 6 -38 5 -46 -11 -51 -111 -36 -151 -81
-197 -220 -22 -67 -45 -200 -36 -213 19 -32 351 -51 550 -32 128 13 351 50
450 75 30 8 67 17 83 20 26 6 27 8 27 79 -1 145 -48 280 -117 336 -18 14 -56
33 -85 42 -46 14 -53 20 -61 50 -10 41 -24 58 -31 38z"/>
<path d="M8690 1507 c-318 -232 -578 -359 -908 -442 -107 -27 -269 -55 -319
-55 -17 0 -35 -5 -39 -11 -8 -13 109 -6 276 16 299 40 517 116 780 272 267
159 326 203 309 234 -14 28 -48 23 -99 -14z"/>
<path d="M152 1368 c-16 -16 -14 -56 6 -157 27 -131 44 -117 73 61 10 62 10
79 0 92 -16 19 -62 21 -79 4z"/>
<path d="M332 1368 c-16 -16 -15 -53 4 -159 11 -58 21 -89 30 -89 15 0 18 9
39 127 19 106 12 133 -33 133 -16 0 -33 -5 -40 -12z"/>
<path d="M4712 1368 c-16 -16 -15 -47 4 -148 16 -83 27 -110 40 -98 8 9 44
177 44 208 0 33 -17 50 -50 50 -14 0 -31 -5 -38 -12z"/>
<path d="M4892 1368 c-16 -16 -15 -64 5 -164 25 -128 39 -114 74 72 14 75 3
104 -39 104 -16 0 -33 -5 -40 -12z"/>
<path d="M632 1314 c2 -9 19 -22 38 -28 19 -6 40 -22 47 -36 40 -79 -17 -381
-90 -482 l-30 -42 -19 27 c-14 20 -28 27 -52 27 -39 0 -56 -15 -56 -52 0 -62
73 -88 136 -49 95 58 154 218 176 473 l11 139 86 -3 86 -3 3 -261 c1 -152 -2
-273 -7 -287 -7 -19 -20 -28 -46 -33 -20 -3 -35 -12 -35 -20 0 -11 26 -14 135
-14 109 0 135 3 135 14 0 8 -12 17 -27 21 -54 13 -53 8 -53 295 0 287 -1 281
53 294 15 3 27 13 27 21 0 13 -37 15 -261 15 -235 0 -260 -2 -257 -16z"/>
<path d="M1335 1117 c-59 -28 -83 -64 -69 -105 11 -31 41 -40 75 -22 18 10 21
18 16 51 -5 41 4 56 38 59 67 7 99 -17 110 -82 9 -52 1 -59 -100 -93 -132 -45
-165 -76 -165 -156 0 -33 7 -48 35 -76 34 -34 38 -35 94 -31 44 3 68 11 94 31
l36 27 30 -30 c31 -32 68 -38 115 -20 37 14 34 40 -4 40 -19 0 -33 7 -40 19
-5 11 -10 85 -10 168 0 98 -5 156 -13 172 -35 69 -150 92 -242 48z m175 -221
c0 -12 -3 -51 -6 -85 -6 -55 -10 -63 -39 -81 -88 -54 -166 11 -121 99 17 32
51 56 104 76 53 19 62 18 62 -9z"/>
<path d="M1875 1134 c-44 -11 -100 -61 -128 -114 -26 -50 -28 -63 -25 -135 4
-94 25 -143 82 -189 51 -41 143 -49 210 -17 52 26 104 87 88 103 -8 8 -24 -1
-56 -30 -38 -35 -52 -42 -87 -42 -92 0 -144 73 -144 200 1 58 6 86 24 123 27
56 48 69 104 65 l42 -3 0 -54 c0 -49 3 -57 26 -70 79 -45 104 86 26 141 -30
22 -114 33 -162 22z"/>
<path d="M2740 1124 c-199 -86 -177 -414 31 -464 58 -14 111 -7 164 23 114 64
149 252 68 369 -52 75 -177 109 -263 72z m160 -52 c38 -39 53 -100 48 -197 -6
-124 -49 -185 -129 -185 -40 0 -93 52 -108 105 -14 51 -14 159 0 209 6 22 24
52 39 68 23 23 37 28 75 28 38 0 52 -5 75 -28z"/>
<path d="M2130 1055 c0 -57 3 -75 14 -75 7 0 19 14 26 30 24 59 48 80 91 80
l39 0 0 -179 c0 -191 -5 -211 -51 -211 -10 0 -19 -7 -19 -15 0 -12 19 -15 115
-15 92 0 115 3 115 14 0 8 -12 17 -27 21 -15 3 -31 12 -35 18 -4 7 -8 92 -8
190 l0 177 35 0 c38 0 64 -22 90 -76 9 -19 23 -34 31 -34 12 0 14 13 12 73
l-3 72 -212 3 -213 2 0 -75z"/>
<path d="M3094 1118 c-4 -6 -3 -13 2 -15 55 -20 59 -26 65 -113 3 -47 12 -95
19 -107 29 -45 104 -61 190 -39 34 9 64 16 66 16 3 0 4 -33 2 -72 -3 -73 -3
-73 -36 -83 -60 -17 -28 -30 86 -33 86 -2 112 0 112 10 0 7 -15 20 -33 28
l-32 15 -3 160 c-1 88 0 170 3 181 3 14 15 24 36 28 18 3 29 11 27 18 -3 9
-35 13 -113 13 -115 0 -140 -11 -83 -36 l33 -14 3 -84 c2 -58 -1 -87 -9 -92
-28 -17 -98 -20 -133 -5 -40 16 -50 46 -44 131 3 46 6 51 36 64 18 8 31 20 29
25 -5 16 -213 20 -223 4z"/>
<path d="M3664 1118 c-4 -6 -3 -13 2 -15 5 -2 20 -9 34 -16 l25 -13 3 -173 c3
-180 -1 -201 -39 -201 -11 0 -19 -7 -19 -15 0 -12 19 -15 110 -15 91 0 110 3
110 15 0 8 -8 15 -18 15 -37 0 -52 32 -52 110 l0 73 32 -7 c56 -11 100 -67
128 -163 l13 -43 79 0 c63 0 78 3 78 15 0 8 -8 15 -18 15 -31 0 -60 28 -85 83
-21 46 -70 107 -86 107 -3 0 -12 4 -19 9 -11 6 -8 16 12 45 13 20 32 57 42 81
19 51 24 53 49 25 33 -36 85 -20 85 26 0 34 -26 54 -72 54 -50 0 -85 -34 -111
-108 -23 -67 -54 -102 -92 -105 l-30 -2 0 80 0 80 32 15 c18 8 31 20 29 25 -4
15 -213 19 -222 3z"/>
<path d="M8975 866 c-33 -30 -108 -95 -167 -143 -59 -48 -107 -91 -107 -94 -2
-19 45 -14 90 9 60 31 253 183 275 217 18 28 10 65 -14 65 -10 0 -44 -25 -77
-54z"/>
</g>
</svg>
