<svg xmlns="http://www.w3.org/2000/svg" width="410.667" height="410.667" version="1.0" viewBox="0 0 308 308"><path d="M26 3.9c-8.2 2.7-14.7 8-18.7 15.4-2.5 4.5-2.5 19.9 0 24.4 7.8 14.3 23.9 19.9 37.9 13C71.1 44 63.5 5.5 34.7 3.5c-3.4-.3-7.3-.1-8.7.4zm14.8 8.6c16.6 7 16.6 31 0 38C25.7 56.7 9.2 42.8 13 27c2.9-12.2 16.4-19.2 27.8-14.5z"/><path d="M29.4 20.1c-7.5 2.1-10.7 11.3-6.2 17.9 8.6 12.7 27.8.4 19.8-12.7-2.9-4.8-8-6.8-13.6-5.2zM78 7v4h-8v49h8V11h8V3h-8v4zM94 11v8h8v8h17v9h-17v8h-8v-8h-8v24h8v-8h8v8h8v-8h8v-4c0-4 0-4 3.9-4 4 0 4 0 4.3-4.3.3-4.2.3-4.2 4.6-4.5l4.3-.3-.3-7.7-.3-7.7-12.2-.3-12.3-.3V3H94v8z"/><path d="M119 7v4h16v8h8v33h-8v8h-9v-4c0-3.9-.1-4-3.5-4s-3.5.1-3.5 4v4h-4c-4 0-4 0-4 3.9 0 4 0 4-4.2 4.3l-4.3.3-.3 12.2-.3 12.3H86v16H62v8h-8v8h8.1l-.3 4.2c-.3 4.2-.4 4.3-4 4.6-3.6.3-3.8.5-3.8 3.8v3.4h24v-3.4c0-3.4-.1-3.5-4.2-3.8l-4.3-.3-.3-8.3-.3-8.2H78v8h8v-16h8v-8h8v16h8v-8h9v8h-8v8h8v4c0 3.9.1 4 3.5 4h3.5v-24h9v8h24v-16h8v-8h-24v16h-8V92h4c3.9 0 4-.1 4-3.5V85h-16v8h-17V76h9v4c0 3.9.1 4 3.5 4h3.4l.3-7.8.3-7.7 4.3-.3 4.2-.3V76h8v8h8v-8h16v-8h-8V52h-8V27h8v7.9c0 9.1 0 9.1 10.8 9.1h6.2v8.1l3.8-.3c3.5-.3 3.7-.5 4-4.3l.3-4 19.9.3 20 .3V36h-40v-8h-8v8h-9v-9h8V11h-3.5c-3.4 0-3.5.1-3.5 4v4h-9V3h-8v8h-16V3h-16v4zm32 53v8h-16v-8h8v-8h8v8z"/><path d="M176 7v4h8v16h8v-8h8v-8h8v16h8V11h8V3h-48v4zM233 11v8h8V3h-8v8zM269.2 4.4c-20.4 6.7-26.7 32.1-11.7 47.1 5.6 5.6 11.6 7.9 20 7.9 11.5 0 20.6-5.7 25.7-16.3 3.1-6.5 3.2-16.9 0-23.2-6.4-13-21.1-19.7-34-15.5zm15.9 8c10.5 4.4 15.7 17.1 11 27.1-7.9 17-31 16.2-38-1.3-2.1-5.1-1-13.5 2.5-18.4 5.4-7.7 16.1-10.9 24.5-7.4z"/><path d="M274.5 19.7c-6.1 1.6-10.4 9-8.5 14.8 3.1 9.3 14.3 11.7 20.4 4.4 5.2-6.1 2.6-15.3-5-18.5-3.5-1.5-3.7-1.5-6.9-.7zM233 40v4h-8v8h8v8h8V36h-8v4zM168 56c0 3.9.1 4 3.5 4s3.5-.1 3.5-4-.1-4-3.5-4-3.5.1-3.5 4z"/><path d="M184 56c0 4 0 4-4 4h-3.9l-.3 8.2-.3 8.3-3.7.3-3.8.3V92h3.4c3.3 0 3.5-.2 3.8-3.8.3-3.6.4-3.7 4.6-4l4.2-.3V68h8v17h-4c-3.9 0-4 .1-4 3.5V92h24v-3.5c0-3.4-.1-3.5-4-3.5h-4v-9.1l8.3.3 8.2.3.3 7.7.3 7.8h6.9V76h9v17h-8v8h8v8h8v-8h8v8h8v8h-8v9h-8v8.1l-4.2-.3-4.3-.3-.3-8.3-.3-8.2h-3.4c-3.3 0-3.4.1-3.7 4.2-.3 4.2-.4 4.3-4 4.6-3.6.3-3.8.5-3.8 3.7s.2 3.4 3.8 3.7c3.6.3 3.7.4 4 4.5l.3 4.3H217v23.9l-4.2.3-4.3.3-.3 7.7-.3 7.8h8.1v-8h9v33h3.5c3.4 0 3.5-.1 3.5-3.9 0-4 0-4 4.3-4.3 4.1-.3 4.2-.4 4.5-4 .3-3.7.3-3.7-4-4l-4.3-.3-.3-16.3-.2-16.2h-4c-4 0-4 0-4-4v-4h9v8h8v8h16v16h8v-8h8v-8h-8v-16h-16v-9h8v-8h8v-24h8v-8h-16.1l.3-4.3.3-4.2 7.8-.3 7.7-.3V85h-24v8h-8V76h8v-8h-17v-8h-8v-4c0-3.9-.1-4-3.5-4H217v16h-9V52h-8v8h-8v-8h-8v4zM21 71.9V76h8.1l-.3-3.8c-.3-3.5-.5-3.7-4-4l-3.8-.3v4zM45.7 68.7c-.4.3-.7 2.1-.7 4V76h17v4c0 3.9.1 4 3.4 4s3.5-.2 3.8-3.8l.3-3.7 8.3-.3 8.2-.3V68H66.2c-10.9 0-20.2.3-20.5.7z"/><path d="M257 72v4h33v8h8.1l-.3-7.8-.3-7.7-20.2-.3L257 68v4zM5 89v12h8v16H5v8h8v8h8v-8h8v9h-8v16h-9v-4c0-3.9-.1-4-3.5-4H5v24h3.5c3.4 0 3.5-.1 3.5-4v-4h9v24h8v-8h8v16h8v-16h16v-8h-8v-8h8v-8h-8v-8h-8v8h-8v-9h4c3.9 0 4-.1 4-3.5s-.1-3.5-4-3.5h-4v-9h8v-24h3.9c4 0 4 0 4.3-4.3.3-4.1.4-4.2 4.1-4.5 3.5-.3 3.7-.5 3.7-3.8V85H45v16h-8v-8H21V77H5v12zm32 16v4h-8v8h-8v-16h16v4zm0 53v8h-8v-16h8v8z"/><path d="M37 80.5c0 3.4.1 3.5 4 3.5s4-.1 4-3.5-.1-3.5-4-3.5-4 .1-4 3.5zM78 88.5c0 3.4.1 3.5 4 3.5s4-.1 4-3.5-.1-3.5-4-3.5-4 .1-4 3.5zM298 89v4h-8v8h8v8h8V85h-8v4zM70 97.1v4l3.8-.3c3.5-.3 3.7-.5 4-4.1l.3-3.7H70v4.1zM208 97v4h-8v8h-8v-8h-16v8h16v25h-16v16h-8v8h16v8h-8v25h-9v-8h-8v-8h-8v8h-8v16h8v8h8v8h-16v-8h-8v-15.9l-4.2-.3c-4.2-.3-4.3-.4-4.6-4.1-.3-3.5-.5-3.7-3.8-3.7H119v24h-8v8H86v-8h-8v-8h-8v8h8v8h8v8h8v16h8v-16h16v-8h8v-8h9v16h33v4c0 3.9.1 4 3.5 4s3.5-.1 3.5-4v-4h17v8h8v17h-16v8h-9v-8h-8v-8h-16.1l.3 3.7c.3 3.6.5 3.8 4 4.1 3.5.3 3.7.5 4 4 .3 3.6.4 3.7 4.6 4 4.2.3 4.2.3 4.2 4.3v3.9h16v16h8v-8h8v-24h8v-17h8v-8h-8v-16h8v-16h-16v32h-8v-32h-8v-17h16v-8h-8v-25h24v-3.5c0-3.4-.1-3.5-4-3.5h-4v-8h-8v-9h8v-16h8v-8h-8v4zm-49 97.5v4.5h-8v-9h8v4.5zm17 8.5v4h-9v-8h9v4zm16 57v4h-8v-8h8v4zM274 97c0 3.9.1 4 3.5 4s3.5-.1 3.5-4-.1-4-3.5-4-3.5.1-3.5 4zM54 105c0 3.9.1 4 3.5 4s3.5-.1 3.5-4-.1-4-3.5-4-3.5.1-3.5 4zM282 105c0 3.9.1 4 3.5 4s3.5-.1 3.5-4-.1-4-3.5-4-3.5.1-3.5 4z"/><path d="M168 117v8h7v-16h-7v8zM217 113c0 3.9.1 4 3.5 4s3.5-.1 3.5-4-.1-4-3.5-4-3.5.1-3.5 4zM274 121c0 3.9.1 4 3.5 4s3.5-.1 3.5-4-.1-4-3.5-4-3.5.1-3.5 4zM45 129.5c0 3.4.1 3.5 4 3.5s4-.1 4-3.5-.1-3.5-4-3.5-4 .1-4 3.5zM86 129.5v3.5h24v-7H86v3.5zM298 133.5v7.5h8v-15h-8v7.5zM111 137.5c0 3.3.2 3.5 3.5 3.5s3.5-.2 3.5-3.5-.2-3.5-3.5-3.5-3.5.2-3.5 3.5zM127 137.5c0 3.4.1 3.5 4 3.5s4-.1 4-3.5-.1-3.5-4-3.5-4 .1-4 3.5zM159 138v4h-8v8h-32v8h-8v24h3.5c3.4 0 3.5-.1 3.5-4v-4h9v8h16v-3.5c0-3.4-.1-3.5-3.9-3.5-4 0-4 0-4.3-4.3-.3-4.2-.3-4.2-4.5-4.5-4.3-.3-4.3-.3-4.3-4.3V158h17v16h8v-8h16v-8h-16v-8h16v-16h-8v4zM265.2 141.7l.3 7.8 4.3.3c4.2.3 4.2.3 4.2 4.3 0 3.8.1 3.9 3.5 3.9h3.5v-16h-8v-8h-8.1l.3 7.7zM78 146v4h-8v8h8v8h-8v8h24v-8h8v-8h-8v-8h8v-8H78v4zm16 16v4h-8v-8h8v4zM298 158v8h-16v8h8v8h8v9h-8v8h-8v8h8v8h16v-40h-8v-9h8v-16h-8v8zM62 162c0 3.9.1 4 3.5 4s3.5-.1 3.5-4-.1-4-3.5-4-3.5.1-3.5 4zM5 182.5v7.5h7v-15H5v7.5zM61.8 178.7c-.3 3.6-.5 3.8-4 4.1-3.6.3-3.8.5-3.8 3.8v3.4h24v-3.4c0-3.4-.1-3.5-4.2-3.8-4.2-.3-4.3-.4-4.6-4.1-.3-3.5-.5-3.7-3.7-3.7s-3.4.2-3.7 3.7zM241 178.5c0 3.4.1 3.5 4 3.5s4-.1 4-3.5-.1-3.5-4-3.5-4 .1-4 3.5zM274 178.5c0 3.3.2 3.5 3.5 3.5s3.5-.2 3.5-3.5-.2-3.5-3.5-3.5-3.5.2-3.5 3.5zM94 186.5c0 3.4.1 3.5 4 3.5s4-.1 4-3.5-.1-3.5-4-3.5-4 .1-4 3.5zM192 186.5c0 3.4.1 3.5 4 3.5s4-.1 4-3.5-.1-3.5-4-3.5-4 .1-4 3.5zM13 195v4H5v8h8v8H5v8h24v16h16v-3.5c0-3.4-.1-3.5-4-3.5h-4v-9h8v-8h8v-8h-8v-8H29v-8H13v4zm16 16v4h8v-8h8v8h-8v8h-8v-8h-4c-3.6 0-4-.3-4-2.4 0-1.3-.3-3.1-.6-4-.5-1.3.2-1.6 4-1.6H29v4zM45.2 194.7c.3 3.6.5 3.8 4.1 4.1l3.7.3V191h-8.1l.3 3.7zM102 199v8h8v-16h-8v8zM249 195v4h8v16h-8v8h-8v9h-16v8h-8v16h16v8h-8v8h-8v25h3.4c3.4 0 3.5-.1 3.8-4.3.3-4.2.3-4.2 4.3-4.2s4 0 4.3 4.3l.3 4.2H225v8.1l7.8-.3 7.7-.3.3-3.7c.3-3.5.5-3.7 4-4 3.6-.3 3.7-.4 4-4.6l.3-4.2H265v-16h9v4c0 3.9.1 4 3.5 4s3.5-.1 3.5-4v-4h8v-8h9v8h8v-24h-16v8h-8v8h-9v-8h8v-16h-8v-8h-16v-17h8v-24h-16v4zm16 56.5V264h-24v-25h24v12.5zm-8 25v4.5h-16v-9h16v4.5z"/><path d="M249 252v4h8v-8h-8v4zM274 195c0 3.9.1 4 3.5 4s3.5-.1 3.5-4-.1-4-3.5-4-3.5.1-3.5 4zM54 203c0 3.9.1 4 3.5 4s3.5-.1 3.5-4-.1-4-3.5-4-3.5.1-3.5 4zM62 211c0 3.9.1 4 3.5 4s3.5-.1 3.5-4-.1-4-3.5-4-3.5.1-3.5 4zM54 219c0 3.9.1 4 3.5 4s3.5-.1 3.5-4-.1-4-3.5-4-3.5.1-3.5 4zM70 218.9v4.1h8v8h8.1l-.3-3.8c-.3-3.5-.5-3.7-4-4-3.5-.3-3.7-.5-4-4-.3-3.5-.5-3.7-4-4l-3.8-.3v4zM217 219v4h15v-8h-15v4zM62 227c0 3.9.1 4 3.5 4s3.5-.1 3.5-4-.1-4-3.5-4-3.5.1-3.5 4zM127 226.9v4.1h8.1l-.3-3.8c-.3-3.5-.5-3.7-4-4l-3.8-.3v4zM274 227c0 3.9.1 4 3.5 4s3.5-.1 3.5-4-.1-4-3.5-4-3.5.1-3.5 4zM290 231v8h16.1l-.3-7.8-.3-7.7-7.7-.3-7.8-.3v8.1zM5 235.5v3.5h16v-7H5v3.5zM54 235.5c0 3.3.2 3.5 3.5 3.5s3.5-.2 3.5-3.5-.2-3.5-3.5-3.5-3.5.2-3.5 3.5zM70 248v16h8v8h8v25h-8v8h16v-17h3.9c4 0 4 0 4.3 4.3.3 4.2.3 4.2 4.6 4.5 4.2.3 4.2.3 4.2 4.3 0 3.8.1 3.9 3.5 3.9s3.5-.1 3.5-4v-3.9l8.3-.3 8.2-.3.3-4.3c.3-4.2.3-4.2 4.3-4.2h3.9v-16h16v-8h-8v-16h-8v8h-4c-4 0-4 0-4-3.9 0-4 0-4-4.2-4.3l-4.3-.3-.3-7.8-.3-7.7H111v24h24v25.1l-4.2-.3-4.3-.3-.3-8.3-.3-8.3-11.7.3-11.7.3-.3 3.7-.3 3.8H119v17h-9v-8H94v-9h-8v-8h8v-8h8v-8h-8v8h-8v8h-8v-15.9l3.8-.3c3.5-.3 3.7-.5 4-4.1l.3-3.7H78v-8h-8v16zM143 235.5c0 3.4.1 3.5 4 3.5s4-.1 4-3.5-.1-3.5-4-3.5-4 .1-4 3.5zM23.9 249.6C13.3 252.8 5 264.2 5 275.6c0 16.7 11.8 28.8 28.1 28.8 26.2 0 37.8-32.6 17.7-49.8-7.1-6.1-17.3-8-26.9-5zm17.7 8.3c14.4 6.6 15.8 26.2 2.5 35.6-3.7 2.6-5.1 3-11 3-5.7 0-7.4-.4-11-2.8-13.5-8.9-12.6-28.1 1.8-35.7 4.6-2.5 12.4-2.5 17.7-.1z"/><path d="M28.5 265.4c-4.3 1.9-6.6 4.9-7.2 9.4-1.3 9.8 8.7 16.3 17.8 11.6 3.1-1.6 5.9-6.6 5.9-10.6 0-3.6-3.7-8.8-7.5-10.4-4.2-1.7-5.1-1.7-9 0zM208 260v4h8v-8h-8v4zM290 284.4V297h8v8h8v-24h-3.9c-4 0-4 0-4.3-4.3-.3-4.1-.4-4.2-4-4.5l-3.8-.3v12.5zM70 284.5c0 3.4.1 3.5 4 3.5s4-.1 4-3.5-.1-3.5-4-3.5-4 .1-4 3.5zM151 284.5v3.5h24v-7h-24v3.5zM192 284.5c0 3.4.1 3.5 4 3.5s4-.1 4-3.5-.1-3.5-4-3.5-4 .1-4 3.5zM176 293v4h-25v8l16.3-.2 16.2-.3.3-7.8.3-7.7H176v4zM265.2 296.7l.3 7.8 11.8.3 11.7.3V297h-8v-8h-16.1l.3 7.7zM135 301v4h8v-8h-8v4zM192 301v4h24v-8h-24v4z"/></svg>